<svg width="131" height="32" viewBox="0 0 131 32" fill="none" xmlns="http://www.w3.org/2000/svg">
<path d="M62.616 8.556L58.59 24H54.036L51.572 13.836L49.02 24H44.466L40.55 8.556H44.576L46.798 19.798L49.548 8.556H53.684L56.324 19.798L58.568 8.556H62.616ZM75.4367 21.272H69.6727L68.7487 24H64.8107L70.3987 8.556H74.7547L80.3427 24H76.3607L75.4367 21.272ZM74.4687 18.368L72.5547 12.714L70.6627 18.368H74.4687ZM94.4734 8.556V11.57H90.3814V24H86.6194V11.57H82.5274V8.556H94.4734ZM97.0434 16.256C97.0434 14.7307 97.3734 13.374 98.0334 12.186C98.6934 10.9833 99.6101 10.052 100.783 9.392C101.971 8.71733 103.313 8.38 104.809 8.38C106.643 8.38 108.212 8.864 109.517 9.832C110.823 10.8 111.695 12.12 112.135 13.792H107.999C107.691 13.1467 107.251 12.6553 106.679 12.318C106.122 11.9807 105.484 11.812 104.765 11.812C103.607 11.812 102.668 12.2153 101.949 13.022C101.231 13.8287 100.871 14.9067 100.871 16.256C100.871 17.6053 101.231 18.6833 101.949 19.49C102.668 20.2967 103.607 20.7 104.765 20.7C105.484 20.7 106.122 20.5313 106.679 20.194C107.251 19.8567 107.691 19.3653 107.999 18.72H112.135C111.695 20.392 110.823 21.712 109.517 22.68C108.212 23.6333 106.643 24.11 104.809 24.11C103.313 24.11 101.971 23.78 100.783 23.12C99.6101 22.4453 98.6934 21.514 98.0334 20.326C97.3734 19.138 97.0434 17.7813 97.0434 16.256ZM129.135 8.556V24H125.373V17.642H119.521V24H115.759V8.556H119.521V14.606H125.373V8.556H129.135Z" fill="white"/>
<path d="M24 10.6666H25.3333C26.7478 10.6666 28.1044 11.2285 29.1046 12.2287C30.1048 13.2289 30.6667 14.5855 30.6667 16C30.6667 17.4144 30.1048 18.771 29.1046 19.7712C28.1044 20.7714 26.7478 21.3333 25.3333 21.3333H24" stroke="white" stroke-width="2" stroke-linecap="round" stroke-linejoin="round"/>
<path d="M2.66669 10.6666H24V22.6666C24 24.0811 23.4381 25.4377 22.4379 26.4379C21.4377 27.4381 20.0812 28 18.6667 28H8.00002C6.58553 28 5.22898 27.4381 4.22878 26.4379C3.22859 25.4377 2.66669 24.0811 2.66669 22.6666V10.6666Z" fill="white" stroke="white" stroke-width="2" stroke-linecap="round" stroke-linejoin="round"/>
<path d="M8 1.33337V5.33337" stroke="white" stroke-width="2" stroke-linecap="round" stroke-linejoin="round"/>
<path d="M13.3333 1.33337V5.33337" stroke="#7900C2" stroke-width="2" stroke-linecap="round" stroke-linejoin="round"/>
<path d="M18.6667 1.33337V5.33337" stroke="white" stroke-width="2" stroke-linecap="round" stroke-linejoin="round"/>
</svg>
